<svg width="17.000000" height="17.000000" viewBox="0 0 17 17" fill="none" xmlns="http://www.w3.org/2000/svg" xmlns:xlink="http://www.w3.org/1999/xlink">
	<desc>
			Created with Pixso.
	</desc>
	<defs/>
	<path id="icon" d="M9.53613 8L15.7427 14.2065C16.1333 14.5972 16.1333 15.2305 15.7427 15.6211L15.6206 15.7432C15.23 16.1333 14.5969 16.1333 14.2063 15.7432L8 9.53662L1.79346 15.7432C1.40283 16.1333 0.769775 16.1333 0.37915 15.7432L0.25708 15.6211C-0.133545 15.2305 -0.133545 14.5972 0.25708 14.2065L6.46362 8L0.25708 1.79346C-0.133545 1.40332 -0.133545 0.77002 0.25708 0.379395L0.37915 0.257324C0.769775 -0.133301 1.40283 -0.133301 1.79346 0.257324L8 6.46387L14.2063 0.257324C14.5969 -0.133301 15.23 -0.133301 15.6206 0.257324L15.7427 0.379395C16.1333 0.77002 16.1333 1.40332 15.7427 1.79346L9.53613 8Z" clip-rule="evenodd" fill="#FFFFFF" fill-opacity="1.000000" fill-rule="evenodd"/>
</svg>
