<svg width="17.963623" height="17.963623" viewBox="0 0 17.9636 17.9636" fill="none" xmlns="http://www.w3.org/2000/svg" xmlns:xlink="http://www.w3.org/1999/xlink">
	<desc>
			Created with Pixso.
	</desc>
	<defs/>
	<path id="icon" d="M1.76001 12.25L4.30005 11.96C4.90991 11.8899 5.51001 12.1001 5.93994 12.53L7.78003 14.3701C10.6099 12.9299 12.9299 10.6201 14.3699 7.78003L12.52 5.92993C12.0898 5.5 11.8799 4.8999 11.95 4.29004L12.24 1.77002C12.3599 0.76001 13.21 0 14.23 0L15.96 0C17.0898 0 18.03 0.939941 17.96 2.07007C17.4299 10.6101 10.5999 17.4299 2.07007 17.96C0.939941 18.03 0 17.0901 0 15.96L0 14.23C-0.0100098 13.22 0.75 12.3701 1.76001 12.25Z" fill="#FFFFFF" fill-opacity="1.000000" fill-rule="evenodd"/>
</svg>
