<svg width="97.047852" height="51.313721" viewBox="0 0 97.0479 51.3137" fill="none" xmlns="http://www.w3.org/2000/svg" xmlns:xlink="http://www.w3.org/1999/xlink">
	<desc>
			Created with Pixso.
	</desc>
	<defs/>
	<path id="Fill 1" d="M36.0942 0.25C35.542 0.25 35.0942 0.697754 35.0942 1.25L35.0942 5.5249C35.0942 6.07715 35.542 6.5249 36.0942 6.5249L72.4211 6.5249C82.5481 6.5249 90.5017 14.3215 90.5017 24.4143L90.5017 24.4143C90.5017 24.7 90.7332 24.9314 91.0188 24.9314L96.2808 24.9314C96.5664 24.9314 96.7979 24.7 96.7979 24.4143L96.7979 24.4143C96.7979 10.925 85.9558 0.25 72.4211 0.25L36.0942 0.25Z" fill="#6B7B84" fill-opacity="1.000000" fill-rule="evenodd"/>
	<path id="Fill 1" d="M35.0942 5.5249C35.0942 6.07715 35.542 6.5249 36.0942 6.5249L72.4211 6.5249C82.5481 6.5249 90.5017 14.3215 90.5017 24.4143C90.5017 24.7 90.7332 24.9314 91.0188 24.9314L96.2808 24.9314C96.5664 24.9314 96.7979 24.7 96.7979 24.4143C96.7979 10.925 85.9558 0.25 72.4211 0.25L36.0942 0.25C35.542 0.25 35.0942 0.697754 35.0942 1.25L35.0942 5.5249Z" stroke="#80949F" stroke-opacity="1.000000" stroke-width="0.500000"/>
	<path id="Fill 3" d="M6.63086 25.3696L6.63086 25.3696C6.63086 25.1277 6.43457 24.9314 6.19238 24.9314L0.688477 24.9314C0.446289 24.9314 0.25 25.1277 0.25 25.3696L0.25 25.3696C0.25 39.019 10.4731 50.2886 23.6929 51.0261L66.0342 51.0637C66.5869 51.0642 67.0352 50.6165 67.0352 50.0637L67.0352 45.4841C67.0352 44.9319 66.5874 44.4841 66.0352 44.4841L25.1504 44.4841C14.9141 44.4558 6.63086 35.9404 6.63086 25.3696Z" fill="#6B7B84" fill-opacity="1.000000" fill-rule="evenodd"/>
	<path id="Fill 3" d="M0.688477 24.9314C0.446289 24.9314 0.25 25.1277 0.25 25.3696C0.25 39.019 10.4731 50.2886 23.6929 51.0261L66.0342 51.0637C66.5869 51.0637 67.0352 50.6165 67.0352 50.0637L67.0352 45.4841C67.0352 44.9319 66.5874 44.4841 66.0352 44.4841L25.1504 44.4841C14.9141 44.4558 6.63086 35.9404 6.63086 25.3696C6.63086 25.1277 6.43457 24.9314 6.19238 24.9314L0.688477 24.9314Z" stroke="#80949F" stroke-opacity="1.000000" stroke-width="0.500000"/>
	<path id="Fill 5" d="M27.6655 39.45C30.4043 39.45 32.6855 38.9177 34.939 37.823L35.0942 37.6775L35.0942 29.843L34.2515 30.9224C32.6289 32.6953 30.4497 33.6711 27.9849 33.6711C23.3931 33.6711 18.7812 30.7034 18.7812 25.0312C18.7812 20.7449 21.9619 16.1895 27.8232 16.1895C28.9927 16.1895 31.8369 16.4661 34.2471 19.0254L35.0942 20.0691L35.0942 12.2703L34.9458 12.1228C32.6499 10.9722 30.3081 10.4128 27.6377 10.4128C23.0708 10.4128 19.5059 11.6152 16.668 14.0864C14.8672 15.6353 11.8647 19.106 11.8647 24.9497C11.8647 29.2705 13.4033 32.645 16.6909 35.5718C19.749 38.2537 23.1401 39.45 27.6655 39.45Z" fill="#6B7B84" fill-opacity="1.000000" fill-rule="evenodd"/>
	<path id="Fill 5" d="M34.939 37.823L35.0942 37.6775L35.0942 29.843L34.2515 30.9224C32.6289 32.6953 30.4497 33.6711 27.9849 33.6711C23.3931 33.6711 18.7812 30.7034 18.7812 25.0312C18.7812 20.7449 21.9619 16.1895 27.8232 16.1895C28.9927 16.1895 31.8369 16.4661 34.2471 19.0254L35.0942 20.0691L35.0942 12.2703L34.9458 12.1228C32.6499 10.9722 30.3081 10.4128 27.6377 10.4128C23.0708 10.4128 19.5059 11.6152 16.668 14.0864C14.8672 15.6353 11.8647 19.106 11.8647 24.9497C11.8647 29.2705 13.4033 32.645 16.6909 35.5718C19.749 38.2537 23.1401 39.45 27.6655 39.45C30.4043 39.45 32.6855 38.9177 34.939 37.823Z" stroke="#80949F" stroke-opacity="1.000000" stroke-width="0.500000"/>
	<mask id="mask_0_727" fill="white">
		<path id="Fill 6" d="M58.0181 26.7874C56.2617 28.5432 53.7324 29.4753 50.501 29.4753L47.5605 29.4753L47.5605 39.45L40.9019 39.45L40.9019 10.4128L49.6562 10.4128C52.938 10.4128 55.2646 10.8904 57.4453 12.801C60.1055 15.1641 60.502 18.4277 60.502 20.1011C60.502 21.6648 60.1787 24.6311 58.0181 26.7874ZM47.4351 16.9463L48.7993 16.9463C50.0508 16.9463 51.4771 17.0146 52.5566 17.7505C53.084 18.127 53.9683 18.9988 53.9683 20.582C53.9683 21.752 53.4512 22.8013 52.5972 23.4558C51.5581 24.2102 50.3325 24.2075 49.3164 24.2053C49.2617 24.2051 49.208 24.2051 49.1548 24.2051L47.4351 24.2051L47.4351 16.9463Z" clip-rule="evenodd" fill="" fill-opacity="1.000000" fill-rule="evenodd"/>
	</mask>
	<path id="Fill 6" d="M58.0181 26.7874C56.2617 28.5432 53.7324 29.4753 50.501 29.4753L47.5605 29.4753L47.5605 39.45L40.9019 39.45L40.9019 10.4128L49.6562 10.4128C52.938 10.4128 55.2646 10.8904 57.4453 12.801C60.1055 15.1641 60.502 18.4277 60.502 20.1011C60.502 21.6648 60.1787 24.6311 58.0181 26.7874ZM47.4351 16.9463L48.7993 16.9463C50.0508 16.9463 51.4771 17.0146 52.5566 17.7505C53.084 18.127 53.9683 18.9988 53.9683 20.582C53.9683 21.752 53.4512 22.8013 52.5972 23.4558C51.5581 24.2102 50.3325 24.2075 49.3164 24.2053C49.2617 24.2051 49.208 24.2051 49.1548 24.2051L47.4351 24.2051L47.4351 16.9463Z" clip-rule="evenodd" fill="#6B7B84" fill-opacity="1.000000" fill-rule="evenodd" mask="url(#mask_0_727)"/>
	<path id="Fill 6" d="M58.1948 26.9641Q56.8301 28.3286 54.8975 29.0249Q52.9536 29.7253 50.501 29.7253L47.5605 29.7253L47.5605 29.4753L47.8105 29.4753L47.8105 39.7L40.6519 39.7L40.6519 10.1628L49.6562 10.1628Q50.9653 10.1628 51.9771 10.2686Q53.1011 10.3862 54.0317 10.6499Q55.0225 10.9304 55.8892 11.4021Q56.7832 11.8887 57.6099 12.613Q59.4209 14.2214 60.2085 16.6321Q60.5098 17.5535 60.646 18.553Q60.752 19.3301 60.752 20.1011Q60.752 21.7734 60.3105 23.2917Q59.6709 25.4912 58.1948 26.9644L58.1948 26.9641ZM57.8418 26.6104Q59.2266 25.2283 59.8301 23.1521Q60.252 21.7021 60.252 20.1011Q60.252 19.364 60.1504 18.6206Q60.0205 17.6658 59.7334 16.7874Q58.9873 14.5054 57.2803 12.989Q56.4956 12.3015 55.6504 11.8413Q54.8325 11.3962 53.8955 11.1309Q53.0059 10.8789 51.9253 10.7659Q50.939 10.6628 49.6562 10.6628L40.9019 10.6628L40.9019 10.4128L41.1519 10.4128L41.1519 39.45L40.9019 39.45L40.9019 39.2L47.5605 39.2L47.5605 39.45L47.3105 39.45L47.3105 29.2253L50.501 29.2253Q52.8662 29.2253 54.728 28.5547Q56.5557 27.896 57.8413 26.6106L57.8418 26.6104ZM47.4351 16.6963L48.7993 16.6963Q49.3652 16.6963 49.7764 16.7188Q50.3276 16.749 50.7842 16.8259Q51.9263 17.0181 52.6978 17.5439Q53.2925 17.9688 53.6729 18.582Q54.2183 19.4622 54.2183 20.582Q54.2183 21.5103 53.8281 22.3206Q53.4419 23.1233 52.7495 23.6543L52.7466 23.6562L52.7441 23.6582Q52.0088 24.1919 50.9893 24.3608Q50.5996 24.4255 50.1221 24.4451Q49.8423 24.4565 49.3159 24.4553L49.1543 24.4551L47.1851 24.4551L47.1851 16.6963L47.4351 16.6963ZM47.4351 17.1963L47.4351 16.9463L47.6851 16.9463L47.6851 24.2051L47.4351 24.2051L47.4351 23.9551L49.1553 23.9551L49.3169 23.9553Q49.833 23.9565 50.1016 23.9453Q50.5483 23.927 50.9072 23.8677Q51.8105 23.718 52.4502 23.2534L52.5972 23.4558L52.4453 23.2573Q53.043 22.7991 53.3779 22.1038Q53.7183 21.3962 53.7183 20.582Q53.7183 19.6045 53.2476 18.8455Q52.9204 18.3174 52.416 17.957Q51.7354 17.4929 50.7012 17.3188Q49.9722 17.1963 48.7993 17.1963L47.4351 17.1963Z" fill="#80949F" fill-opacity="1.000000" fill-rule="nonzero"/>
	<path id="Fill 7" d="M80.4771 24.1262C79.0293 22.8435 77.0085 22.1001 74.7151 21.3289C73.0808 20.76 72.1804 20.4468 71.5801 19.8997C71.1064 19.4973 70.895 19.0608 70.895 18.4836C70.895 17.2197 71.7539 15.8689 74.1653 15.8689C75.804 15.8689 77.176 16.5696 78.2437 17.9504L78.6675 18.4988L82.1836 14.0229L81.863 13.7019C79.7126 11.5498 76.8787 10.4128 73.668 10.4128C67.1897 10.4128 64.2898 14.6274 64.2898 18.8042C64.2898 21.0457 65.0891 22.8535 66.6606 24.175C68.0676 25.3809 69.7834 26.0566 71.4294 26.6082L71.6155 26.6699C73.0769 27.1528 74.5884 27.6528 75.4912 28.4609C76.1194 29.0378 76.3994 29.665 76.3994 30.4941C76.3994 32.3943 74.9031 33.6711 72.676 33.6711C70.9155 33.6711 68.5974 32.8083 67.3711 30.3872L67.0503 29.7527L62.6797 33.7986L62.9375 34.1631C64.3318 36.1375 67.4785 39.45 72.8833 39.45C78.843 39.45 83.0056 35.6184 83.0056 30.1326C83.0056 26.9949 81.6289 25.1326 80.4771 24.1262Z" fill="#6B7B84" fill-opacity="1.000000" fill-rule="evenodd"/>
	<path id="Fill 7" d="M74.7151 21.3289C73.0808 20.76 72.1804 20.4468 71.5801 19.8997C71.1064 19.4973 70.895 19.0608 70.895 18.4836C70.895 17.2197 71.7539 15.8689 74.1653 15.8689C75.804 15.8689 77.176 16.5696 78.2437 17.9504L78.6675 18.4988L82.1836 14.0229L81.863 13.7019C79.7126 11.5498 76.8787 10.4128 73.668 10.4128C67.1897 10.4128 64.2898 14.6274 64.2898 18.8042C64.2898 21.0457 65.0891 22.8535 66.6606 24.175C68.0676 25.3809 69.7834 26.0566 71.4294 26.6082L71.6155 26.6699C73.0769 27.1528 74.5884 27.6528 75.4912 28.4609C76.1194 29.0378 76.3994 29.665 76.3994 30.4941C76.3994 32.3943 74.9031 33.6711 72.676 33.6711C70.9155 33.6711 68.5974 32.8083 67.3711 30.3872L67.0503 29.7527L62.6797 33.7986L62.9375 34.1631C64.3318 36.1375 67.4785 39.45 72.8833 39.45C78.843 39.45 83.0056 35.6184 83.0056 30.1326C83.0056 26.9949 81.6289 25.1326 80.4771 24.1262C79.0293 22.8435 77.0085 22.1001 74.7151 21.3289Z" stroke="#80949F" stroke-opacity="1.000000" stroke-width="0.500000"/>
</svg>
