<svg width="20.000000" height="20.000000" viewBox="0 0 20 20" fill="none" xmlns="http://www.w3.org/2000/svg" xmlns:xlink="http://www.w3.org/1999/xlink">
	<desc>
			Created with Pixso.
	</desc>
	<defs/>
	<path id="Path" d="M8.25806 13.4583L8.66675 13.0496L6.94995 11.3323L6.54126 11.7412L6.33691 11.5366C6.00977 11.1687 5.68286 10.9644 5.35571 11.0051C5.1106 11.0051 4.90601 11.1687 4.74268 11.4141C4.49731 11.8228 4.61987 12.2727 4.66089 12.5588C4.66089 12.6406 4.70166 12.6814 4.70166 12.7632C4.70166 12.886 4.70166 13.0496 4.41553 13.0903C4.00684 13.2129 3.47534 13.3357 2.94409 13.6218C2.20825 14.0308 1.71753 14.3987 1.4314 14.7666C-0.0810547 16.7292 0.000732422 18.4055 0.000732422 18.4873C0.000732422 18.6099 0.041748 18.6917 0.123291 18.7327L1.22705 19.8774C1.30884 19.9592 1.39062 20 1.47241 20C1.47241 20 1.51318 20 1.59497 20C2.00391 20 3.47534 19.9182 5.19214 18.5691C5.56006 18.2827 5.92798 17.7922 6.33691 17.0562C6.62305 16.5657 6.78638 16.0342 6.86816 15.5845C6.94995 15.2981 7.07251 15.2981 7.19531 15.2981C7.23608 15.2981 7.31787 15.3391 7.39966 15.3391C7.56323 15.3799 7.72656 15.4209 7.93115 15.4209C8.1355 15.4209 8.33984 15.3799 8.54419 15.2573C8.78955 15.0938 8.95288 14.8894 8.9939 14.644C9.03467 14.3169 8.87134 13.9897 8.50342 13.7036L8.25806 13.4583Z" fill="#FFFFFF" fill-opacity="1.000000" fill-rule="nonzero"/>
	<path id="Path" d="M16.884 4.87842L18.0188 4.32593C18.0608 4.28345 18.145 4.24097 18.187 4.19849L19.9102 1.86157C20.0361 1.69165 20.0361 1.43677 19.8682 1.30908L18.6914 0.119385C18.5652 -0.00805664 18.313 -0.0505371 18.145 0.0769043L15.8333 1.81909C15.7913 1.86157 15.7493 1.90405 15.7073 1.98901L15.1609 3.13623L11 7.21533L12.7651 9L16.884 4.87842Z" fill="#FFFFFF" fill-opacity="1.000000" fill-rule="nonzero"/>
	<path id="Path" d="M17.8525 13.0447C16.8635 12.0037 15.4392 11.6287 14.0942 12.0037L7.64526 5.17334C7.72437 4.79858 7.76392 4.46533 7.76392 4.09058C7.76392 3.04932 7.36841 2.00806 6.6167 1.2168C5.58789 0.0922852 4.04492 -0.282471 2.62061 0.217285C2.5415 0.258789 2.42285 0.383789 2.3833 0.550293C2.3833 0.675293 2.42285 0.800293 2.50195 0.925293L4.44067 2.96606C4.87573 3.42407 4.87573 4.21533 4.44067 4.67358C4.00537 5.13159 3.25366 5.13159 2.8186 4.67358L0.879883 2.63281C0.76123 2.54956 0.642578 2.50781 0.484375 2.54956C0.365479 2.54956 0.246826 2.67432 0.207275 2.79932C-0.267334 4.25708 0.088623 5.88135 1.11719 6.96411C1.82935 7.75537 2.85815 8.17188 3.88672 8.17188C4.20312 8.17188 4.55933 8.13037 4.87573 8.04712L11.3643 14.8772C11.0081 16.2932 11.4038 17.7927 12.3533 18.8337C13.105 19.6252 14.0544 20 15.0833 20C15.5183 20 15.9141 19.9167 16.3491 19.7917C16.468 19.75 16.5867 19.6252 16.6262 19.5002C16.6658 19.3752 16.6262 19.2087 16.5076 19.1255L14.5688 17.0847C14.3711 16.8765 14.2129 16.5432 14.2129 16.21C14.2129 15.877 14.3315 15.5852 14.5688 15.3354C14.8062 15.0854 15.0833 14.9607 15.3997 14.9607C15.7163 14.9607 15.9932 15.0854 16.2305 15.3354L18.1692 17.3762C18.2878 17.4595 18.4065 17.5012 18.5251 17.5012C18.644 17.4595 18.7627 17.3762 18.8022 17.2512C18.9209 16.8347 19 16.3767 19 15.9185C19 14.8357 18.6042 13.7944 17.8525 13.0447Z" fill="#FFFFFF" fill-opacity="1.000000" fill-rule="nonzero"/>
</svg>
