<svg width="18.000000" height="18.000000" viewBox="0 0 18 18" fill="none" xmlns="http://www.w3.org/2000/svg" xmlns:xlink="http://www.w3.org/1999/xlink">
	<desc>
			Created with Pixso.
	</desc>
	<defs/>
	<path id="icon" d="M12.5007 11.0005L11.7107 11.0005L11.4307 10.7305C12.6306 9.33057 13.2507 7.42041 12.9106 5.39062C12.4407 2.61084 10.1206 0.390625 7.32056 0.0507812C3.09058 -0.469238 -0.469482 3.09082 0.0505371 7.3208C0.390625 10.1206 2.6106 12.4404 5.39062 12.9106C7.42065 13.2505 9.33057 12.6309 10.7307 11.4307L11.0007 11.7104L11.0007 12.5005L15.2607 16.7505C15.6707 17.1606 16.3306 17.1606 16.7407 16.7505L16.7507 16.7407C17.1606 16.3306 17.1606 15.6704 16.7507 15.2607L12.5007 11.0005ZM2.00073 6.50049C2.00073 8.99072 4.01074 11.0005 6.50073 11.0005C8.99072 11.0005 11.0007 8.99072 11.0007 6.50049C11.0007 4.01074 8.99072 2.00049 6.50073 2.00049C4.01074 2.00049 2.00073 4.01074 2.00073 6.50049Z" clip-rule="evenodd" fill="#FFFFFF" fill-opacity="1.000000" fill-rule="evenodd"/>
</svg>
